<svg width="295" height="30" viewBox="0 0 295 30" fill="none" xmlns="http://www.w3.org/2000/svg">
<path d="M108.586 23.4289C106.731 23.4289 105.289 22.9171 104.261 21.8936C103.253 20.8495 102.749 19.3859 102.749 17.5026V10.1331H99.9062V6.54043H100.209C101.015 6.54043 101.64 6.32549 102.084 5.8956C102.527 5.46571 102.749 4.84135 102.749 4.02252V2.73286H106.711V6.54043H110.491V10.1331H106.711V17.2876C106.711 17.8403 106.801 18.3112 106.983 18.7001C107.185 19.089 107.487 19.3859 107.89 19.5906C108.314 19.7953 108.848 19.8976 109.493 19.8976C109.634 19.8976 109.795 19.8874 109.977 19.8669C110.178 19.8465 110.37 19.826 110.551 19.8055V23.2446C110.269 23.2856 109.947 23.3265 109.584 23.3675C109.221 23.4084 108.888 23.4289 108.586 23.4289Z" fill="#282E37"/>
<path d="M83.1587 23.2446V6.54043H86.8786V9.826L86.5761 9.24258C86.9592 8.23951 87.5842 7.48209 88.4512 6.97032C89.3383 6.43808 90.3665 6.17195 91.5359 6.17195C92.7456 6.17195 93.8141 6.43808 94.7416 6.97032C95.6892 7.50256 96.4251 8.24974 96.9493 9.21187C97.4735 10.1535 97.7356 11.2487 97.7356 12.4974V23.2446H93.7738V13.4493C93.7738 12.7124 93.6327 12.0778 93.3504 11.5455C93.0682 11.0133 92.675 10.6039 92.171 10.3173C91.6871 10.0102 91.1125 9.8567 90.4472 9.8567C89.802 9.8567 89.2274 10.0102 88.7233 10.3173C88.2193 10.6039 87.8262 11.0133 87.5439 11.5455C87.2616 12.0778 87.1205 12.7124 87.1205 13.4493V23.2446H83.1587Z" fill="#282E37"/>
<path d="M72.4437 23.6131C70.7502 23.6131 69.2683 23.2242 67.9981 22.4463C66.7279 21.6684 65.74 20.6141 65.0343 19.2835C64.3287 17.9529 63.9759 16.479 63.9759 14.8618C63.9759 13.1832 64.3287 11.6991 65.0343 10.4094C65.7602 9.09928 66.738 8.06551 67.9679 7.30809C69.2179 6.55066 70.609 6.17195 72.1413 6.17195C73.4316 6.17195 74.5607 6.3869 75.5285 6.81679C76.5164 7.24667 77.3531 7.84033 78.0386 8.59775C78.7241 9.35517 79.2483 10.2252 79.6112 11.2078C79.9741 12.1699 80.1555 13.2139 80.1555 14.3398C80.1555 14.6264 80.1354 14.9232 80.0951 15.2303C80.0749 15.5374 80.0245 15.8035 79.9438 16.0287H67.242V12.958H77.7059L75.8309 14.4012C76.0123 13.4596 75.9619 12.6203 75.6797 11.8833C75.4176 11.1464 74.974 10.5629 74.349 10.1331C73.7442 9.70317 73.0083 9.48823 72.1413 9.48823C71.3147 9.48823 70.5788 9.70317 69.9336 10.1331C69.2884 10.5425 68.7945 11.1566 68.4517 11.9754C68.1292 12.7738 68.0082 13.7462 68.0888 14.8925C68.0082 15.9161 68.1392 16.827 68.482 17.6254C68.8449 18.4033 69.3691 19.0072 70.0546 19.4371C70.7602 19.8669 71.5667 20.0819 72.474 20.0819C73.3812 20.0819 74.1474 19.8874 74.7724 19.4985C75.4176 19.1095 75.9216 18.5875 76.2845 17.9324L79.4902 19.5292C79.1676 20.3275 78.6636 21.0338 77.9781 21.6479C77.2926 22.262 76.4761 22.7431 75.5285 23.0911C74.601 23.4391 73.5728 23.6131 72.4437 23.6131Z" fill="#282E37"/>
<path d="M52.8968 30C51.6669 30 50.5278 29.7953 49.4794 29.3859C48.431 28.9765 47.5237 28.4033 46.7575 27.6663C46.0116 26.9498 45.4672 26.1003 45.1245 25.1177L48.814 23.7052C49.056 24.4831 49.5298 25.1075 50.2354 25.5783C50.9612 26.0696 51.8483 26.3153 52.8968 26.3153C53.7032 26.3153 54.4089 26.1617 55.0137 25.8547C55.6387 25.5476 56.1226 25.0972 56.4654 24.5036C56.8081 23.9304 56.9795 23.2344 56.9795 22.4156V18.608L57.7355 19.5292C57.171 20.5322 56.415 21.2897 55.4674 21.8014C54.5198 22.3132 53.4411 22.5691 52.2314 22.5691C50.6991 22.5691 49.3282 22.2109 48.1185 21.4944C46.9088 20.7779 45.9612 19.7953 45.2757 18.5466C44.5902 17.2979 44.2474 15.8956 44.2474 14.3398C44.2474 12.7636 44.5902 11.3613 45.2757 10.1331C45.9612 8.90481 46.8987 7.94268 48.0882 7.24667C49.2777 6.53019 50.6286 6.17195 52.1407 6.17195C53.3706 6.17195 54.4492 6.43808 55.3766 6.97032C56.3242 7.48209 57.1105 8.22927 57.7355 9.21187L57.1912 10.2252V6.54043H60.9412V22.4156C60.9412 23.869 60.5884 25.1689 59.8827 26.3153C59.1972 27.4616 58.2497 28.3623 57.04 29.0174C55.8504 29.6725 54.4694 30 52.8968 30ZM52.7153 18.8536C53.5621 18.8536 54.298 18.6694 54.923 18.3009C55.5682 17.912 56.0722 17.3797 56.4351 16.7042C56.798 16.0287 56.9795 15.2508 56.9795 14.3705C56.9795 13.5107 56.7879 12.7431 56.4049 12.0676C56.042 11.3715 55.5379 10.8291 54.8927 10.4401C54.2677 10.0512 53.5419 9.8567 52.7153 9.8567C51.8887 9.8567 51.1427 10.0512 50.4774 10.4401C49.812 10.8291 49.2878 11.3715 48.9048 12.0676C48.5419 12.7431 48.3604 13.5107 48.3604 14.3705C48.3604 15.2303 48.5419 15.998 48.9048 16.6735C49.2878 17.349 49.802 17.8813 50.4471 18.2702C51.1125 18.6592 51.8685 18.8536 52.7153 18.8536Z" fill="#282E37"/>
<path d="M37.2931 23.2446V6.54043H41.2549V23.2446H37.2931ZM37.2931 4.66735V0.368473H41.2549V4.66735H37.2931Z" fill="#282E37"/>
<path d="M29.6734 23.2446V0H33.6352V23.2446H29.6734Z" fill="#282E37"/>
<path d="M22.0538 23.2446V6.54043H26.0155V23.2446H22.0538ZM22.0538 4.66735V0.368473H26.0155V4.66735H22.0538Z" fill="#282E37"/>
<path d="M0 23.2446V0.368473H7.3489C9.72797 0.368473 11.7945 0.859774 13.5486 1.84237C15.3228 2.8045 16.6938 4.14534 17.6616 5.86489C18.6293 7.56397 19.1132 9.53941 19.1132 11.7912C19.1132 14.0225 18.6293 16.0082 17.6616 17.7482C16.6938 19.4678 15.3228 20.8188 13.5486 21.8014C11.7945 22.7636 9.72797 23.2446 7.3489 23.2446H0ZM4.11296 19.5599H7.43963C8.97191 19.5599 10.2925 19.2426 11.4014 18.608C12.5304 17.9529 13.4075 17.0522 14.0325 15.9058C14.6575 14.739 14.97 13.3675 14.97 11.7912C14.97 10.1945 14.6575 8.82293 14.0325 7.67656C13.4075 6.53019 12.5304 5.63971 11.4014 5.00512C10.2925 4.37052 8.97191 4.05323 7.43963 4.05323H4.11296V19.5599Z" fill="#282E37"/>
<path d="M289.366 23.5763C287.787 23.5763 286.408 23.1986 285.229 22.4432C284.067 21.6694 283.269 20.6285 282.833 19.3204L285.501 18.0215C285.882 18.869 286.408 19.5322 287.079 20.0113C287.769 20.4903 288.531 20.7298 289.366 20.7298C290.019 20.7298 290.536 20.5824 290.917 20.2876C291.298 19.9928 291.489 19.6059 291.489 19.1269C291.489 18.8321 291.407 18.5926 291.244 18.4084C291.099 18.2057 290.89 18.0399 290.618 17.911C290.364 17.7636 290.083 17.6438 289.774 17.5517L287.352 16.8608C286.1 16.4923 285.147 15.9304 284.494 15.175C283.859 14.4197 283.541 13.5261 283.541 12.4944C283.541 11.5732 283.768 10.7718 284.222 10.0901C284.693 9.38997 285.338 8.84647 286.154 8.45957C286.989 8.07267 287.941 7.87922 289.012 7.87922C290.409 7.87922 291.643 8.22006 292.714 8.90174C293.784 9.58342 294.546 10.5415 295 11.7758L292.278 13.0747C292.024 12.393 291.598 11.8495 290.999 11.4442C290.4 11.0389 289.729 10.8362 288.985 10.8362C288.386 10.8362 287.914 10.9744 287.569 11.2508C287.225 11.5271 287.052 11.8864 287.052 12.3286C287.052 12.6049 287.125 12.8444 287.27 13.0471C287.415 13.2497 287.615 13.4156 287.869 13.5445C288.141 13.6735 288.449 13.7932 288.794 13.9038L291.162 14.6223C292.378 14.9908 293.312 15.5435 293.966 16.2805C294.637 17.0174 294.973 17.9202 294.973 18.9887C294.973 19.8915 294.737 20.6929 294.265 21.393C293.793 22.0747 293.14 22.609 292.305 22.9959C291.471 23.3828 290.491 23.5763 289.366 23.5763Z" fill="url(#paint0_linear_16_124)"/>
<path d="M263.432 23.2446L258.342 8.21085H262.098L265.827 19.6244L264.521 19.5967L268.495 8.21085H271.652L275.599 19.5967L274.292 19.6244L278.021 8.21085H281.777L276.687 23.2446H273.503L269.474 11.3337H270.672L266.589 23.2446H263.432Z" fill="url(#paint1_linear_16_124)"/>
<path d="M249.453 23.5763C248.002 23.5763 246.677 23.2354 245.48 22.5537C244.3 21.8721 243.357 20.9417 242.649 19.7625C241.959 18.5834 241.615 17.2385 241.615 15.7277C241.615 14.217 241.959 12.8721 242.649 11.6929C243.357 10.5138 244.3 9.58342 245.48 8.90174C246.659 8.22006 247.984 7.87922 249.453 7.87922C250.905 7.87922 252.221 8.22006 253.4 8.90174C254.579 9.58342 255.514 10.5138 256.203 11.6929C256.911 12.8536 257.265 14.1986 257.265 15.7277C257.265 17.2385 256.911 18.5834 256.203 19.7625C255.496 20.9417 254.552 21.8721 253.373 22.5537C252.193 23.2354 250.887 23.5763 249.453 23.5763ZM249.453 20.26C250.252 20.26 250.95 20.0665 251.549 19.6796C252.166 19.2927 252.647 18.7584 252.992 18.0768C253.355 17.3767 253.536 16.5937 253.536 15.7277C253.536 14.8434 253.355 14.0696 252.992 13.4063C252.647 12.7247 252.166 12.1904 251.549 11.8035C250.95 11.3982 250.252 11.1955 249.453 11.1955C248.637 11.1955 247.92 11.3982 247.303 11.8035C246.686 12.1904 246.196 12.7247 245.833 13.4063C245.489 14.0696 245.316 14.8434 245.316 15.7277C245.316 16.5937 245.489 17.3767 245.833 18.0768C246.196 18.7584 246.686 19.2927 247.303 19.6796C247.92 20.0665 248.637 20.26 249.453 20.26Z" fill="url(#paint2_linear_16_124)"/>
<path d="M226.013 23.2446V11.4442H223.4V8.21085H226.013V7.71341C226.013 6.57114 226.24 5.60389 226.694 4.81167C227.165 4.00102 227.819 3.38383 228.653 2.96008C229.488 2.53634 230.477 2.32446 231.62 2.32446C231.838 2.32446 232.074 2.34289 232.328 2.37973C232.6 2.39816 232.827 2.42579 233.008 2.46264V5.58547C232.827 5.54862 232.654 5.53019 232.491 5.53019C232.346 5.51177 232.21 5.50256 232.083 5.50256C231.284 5.50256 230.667 5.6868 230.232 6.05527C229.796 6.40532 229.579 6.95803 229.579 7.71341V8.21085H236.057V11.4442H229.579V23.2446H226.013ZM235.322 23.2446V2.32446H238.914V23.2446H235.322Z" fill="url(#paint3_linear_16_124)"/>
<path d="M208.589 23.2446V2.32446H212.155V16.0317L210.794 15.6172L217.762 8.21085H222.198L216.728 14.2631L222.307 23.2446H218.225L213.38 15.4514L215.503 15.0092L211.039 19.8731L212.155 17.6622V23.2446H208.589Z" fill="url(#paint4_linear_16_124)"/>
<path d="M198.409 23.2446V8.21085H201.757V11.5548L201.485 11.0573C201.83 9.93347 202.365 9.15046 203.091 8.70829C203.835 8.26612 204.724 8.04504 205.758 8.04504H206.629V11.2508H205.35C204.334 11.2508 203.517 11.5732 202.9 12.218C202.283 12.8444 201.975 13.7288 201.975 14.871V23.2446H198.409Z" fill="url(#paint5_linear_16_124)"/>
<path d="M187.894 23.5763C186.442 23.5763 185.117 23.2354 183.92 22.5537C182.74 21.8721 181.797 20.9417 181.089 19.7625C180.4 18.5834 180.055 17.2385 180.055 15.7277C180.055 14.217 180.4 12.8721 181.089 11.6929C181.797 10.5138 182.74 9.58342 183.92 8.90174C185.099 8.22006 186.424 7.87922 187.894 7.87922C189.345 7.87922 190.661 8.22006 191.84 8.90174C193.02 9.58342 193.954 10.5138 194.644 11.6929C195.351 12.8536 195.705 14.1986 195.705 15.7277C195.705 17.2385 195.351 18.5834 194.644 19.7625C193.936 20.9417 192.992 21.8721 191.813 22.5537C190.634 23.2354 189.327 23.5763 187.894 23.5763ZM187.894 20.26C188.692 20.26 189.391 20.0665 189.989 19.6796C190.606 19.2927 191.087 18.7584 191.432 18.0768C191.795 17.3767 191.976 16.5937 191.976 15.7277C191.976 14.8434 191.795 14.0696 191.432 13.4063C191.087 12.7247 190.606 12.1904 189.989 11.8035C189.391 11.3982 188.692 11.1955 187.894 11.1955C187.077 11.1955 186.36 11.3982 185.743 11.8035C185.126 12.1904 184.637 12.7247 184.274 13.4063C183.929 14.0696 183.756 14.8434 183.756 15.7277C183.756 16.5937 183.929 17.3767 184.274 18.0768C184.637 18.7584 185.126 19.2927 185.743 19.6796C186.36 20.0665 187.077 20.26 187.894 20.26Z" fill="url(#paint6_linear_16_124)"/>
<path d="M157.864 23.2446L152.42 2.65609H156.394L160.667 20.2047H159.633L164.097 2.65609H167.934L172.371 20.2047H171.337L175.61 2.65609H179.584L174.14 23.2446H169.894L165.403 6.16581H166.601L162.11 23.2446H157.864Z" fill="url(#paint7_linear_16_124)"/>
<path d="M141.641 23.2446V2.65609H145.343V23.2446H141.641Z" fill="url(#paint8_linear_16_124)"/>
<path d="M120.604 23.2446L127.599 2.65609H132.389L139.384 23.2446H135.356L133.913 18.8229H126.074L124.605 23.2446H120.604ZM127.136 15.5067H132.852L129.477 5.25384H130.511L127.136 15.5067Z" fill="url(#paint9_linear_16_124)"/>
<defs>
<linearGradient id="paint0_linear_16_124" x1="-3940.83" y1="8.09273" x2="330.547" y2="8.09273" gradientUnits="userSpaceOnUse">
<stop stop-color="#EA0098"/>
<stop offset="0.322115" stop-color="#6254FF"/>
<stop offset="0.519231" stop-color="#6254FF"/>
<stop offset="0.802885" stop-color="#AE00FF"/>
<stop offset="0.9999" stop-color="#F113AB"/>
</linearGradient>
<linearGradient id="paint1_linear_16_124" x1="-1737.64" y1="7.78799" x2="479.906" y2="7.78799" gradientUnits="userSpaceOnUse">
<stop stop-color="#EA0098"/>
<stop offset="0.322115" stop-color="#6254FF"/>
<stop offset="0.519231" stop-color="#6254FF"/>
<stop offset="0.802885" stop-color="#AE00FF"/>
<stop offset="0.9999" stop-color="#F113AB"/>
</linearGradient>
<linearGradient id="paint2_linear_16_124" x1="-2286.62" y1="8.09273" x2="1033.91" y2="8.09273" gradientUnits="userSpaceOnUse">
<stop stop-color="#EA0098"/>
<stop offset="0.322115" stop-color="#6254FF"/>
<stop offset="0.519231" stop-color="#6254FF"/>
<stop offset="0.802885" stop-color="#AE00FF"/>
<stop offset="0.9999" stop-color="#F113AB"/>
</linearGradient>
<linearGradient id="paint3_linear_16_124" x1="-1960.33" y1="14.0379" x2="1389.32" y2="14.0379" gradientUnits="userSpaceOnUse">
<stop stop-color="#EA0098"/>
<stop offset="0.322115" stop-color="#6254FF"/>
<stop offset="0.519231" stop-color="#6254FF"/>
<stop offset="0.802885" stop-color="#AE00FF"/>
<stop offset="0.9999" stop-color="#F113AB"/>
</linearGradient>
<linearGradient id="paint4_linear_16_124" x1="-1898.55" y1="14.0379" x2="1889.76" y2="14.0379" gradientUnits="userSpaceOnUse">
<stop stop-color="#EA0098"/>
<stop offset="0.322115" stop-color="#6254FF"/>
<stop offset="0.519231" stop-color="#6254FF"/>
<stop offset="0.802885" stop-color="#AE00FF"/>
<stop offset="0.9999" stop-color="#F113AB"/>
</linearGradient>
<linearGradient id="paint5_linear_16_124" x1="-2803.08" y1="8.0303" x2="3519.12" y2="8.0303" gradientUnits="userSpaceOnUse">
<stop stop-color="#EA0098"/>
<stop offset="0.322115" stop-color="#6254FF"/>
<stop offset="0.519231" stop-color="#6254FF"/>
<stop offset="0.802885" stop-color="#AE00FF"/>
<stop offset="0.9999" stop-color="#F113AB"/>
</linearGradient>
<linearGradient id="paint6_linear_16_124" x1="-1126.26" y1="8.09273" x2="2194.27" y2="8.09273" gradientUnits="userSpaceOnUse">
<stop stop-color="#EA0098"/>
<stop offset="0.322115" stop-color="#6254FF"/>
<stop offset="0.519231" stop-color="#6254FF"/>
<stop offset="0.802885" stop-color="#AE00FF"/>
<stop offset="0.9999" stop-color="#F113AB"/>
</linearGradient>
<linearGradient id="paint7_linear_16_124" x1="-348.781" y1="13.7808" x2="1564.35" y2="13.7808" gradientUnits="userSpaceOnUse">
<stop stop-color="#EA0098"/>
<stop offset="0.322115" stop-color="#6254FF"/>
<stop offset="0.519231" stop-color="#6254FF"/>
<stop offset="0.802885" stop-color="#AE00FF"/>
<stop offset="0.9999" stop-color="#F113AB"/>
</linearGradient>
<linearGradient id="paint8_linear_16_124" x1="-1700.4" y1="13.7808" x2="12338.6" y2="13.7808" gradientUnits="userSpaceOnUse">
<stop stop-color="#EA0098"/>
<stop offset="0.322115" stop-color="#6254FF"/>
<stop offset="0.519231" stop-color="#6254FF"/>
<stop offset="0.802885" stop-color="#AE00FF"/>
<stop offset="0.9999" stop-color="#F113AB"/>
</linearGradient>
<linearGradient id="paint9_linear_16_124" x1="120.304" y1="12.1136" x2="296.466" y2="12.1136" gradientUnits="userSpaceOnUse">
<stop stop-color="#EA0098"/>
<stop offset="0.322115" stop-color="#6254FF"/>
<stop offset="0.519231" stop-color="#6254FF"/>
<stop offset="0.802885" stop-color="#AE00FF"/>
<stop offset="0.9999" stop-color="#F113AB"/>
</linearGradient>
</defs>
</svg>
