<svg width="800" height="222" viewBox="0 0 800 222" fill="none" xmlns="http://www.w3.org/2000/svg">
<g clip-path="url(#clip0_3_26)">
<path d="M381.62 85.89H362.89V170.61H381.62V85.89Z" fill="white"/>
<path d="M381.62 54.16H362.89V75.26H381.62V54.16Z" fill="white"/>
<path d="M418.16 52.29H399.43V170.62H418.16V52.29Z" fill="white"/>
<path d="M457.77 85.89H439.04V170.61H457.77V85.89Z" fill="white"/>
<path d="M457.77 54.16H439.04V75.26H457.77V54.16Z" fill="white"/>
<path d="M538.68 96.12C536 92.78 532.85 90.1 529.24 88.08C524.38 85.37 518.77 84.02 512.43 84.02C504.75 84.02 497.89 85.82 491.86 89.41C485.82 93.01 481.04 97.93 477.5 104.18C473.97 110.43 472.2 117.57 472.2 125.6C472.2 133.52 473.96 140.66 477.5 147.02C481.03 153.37 485.87 158.38 492.01 162.02C498.15 165.67 505.06 167.49 512.74 167.49C518.98 167.49 524.59 166.14 529.55 163.42C532.72 161.69 535.45 159.45 537.76 156.7V166.54C537.76 170.91 536.81 174.67 534.92 177.79C533.03 180.92 530.44 183.29 527.17 184.9C523.89 186.51 520.11 187.32 515.81 187.32C510.38 187.32 505.8 186.07 502.07 183.57C498.33 181.07 495.8 177.84 494.47 173.88L477.12 180.76C478.86 185.66 481.62 189.91 485.41 193.5C489.19 197.1 493.7 199.91 498.92 201.94C504.14 203.97 509.82 204.99 515.96 204.99C523.84 204.99 530.83 203.32 536.92 199.99C543.01 196.65 547.79 192.1 551.28 186.31C554.76 180.52 556.5 173.93 556.5 166.54V85.89H538.69V96.12H538.68ZM534.85 138.11C532.9 141.76 530.22 144.62 526.79 146.71C523.36 148.79 519.44 149.84 515.04 149.84C510.53 149.84 506.52 148.77 502.99 146.63C499.46 144.5 496.7 141.63 494.7 138.03C492.7 134.43 491.71 130.35 491.71 125.76C491.71 121.17 492.71 117.06 494.7 113.41C496.7 109.76 499.46 106.87 502.99 104.73C506.52 102.6 510.54 101.52 515.04 101.52C519.34 101.52 523.2 102.59 526.63 104.73C530.06 106.87 532.77 109.76 534.77 113.41C536.77 117.06 537.76 121.17 537.76 125.76C537.76 130.34 536.79 134.46 534.85 138.11Z" fill="white"/>
<path d="M638.71 96.21C635.28 92.35 631.08 89.36 626.12 87.22C621.15 85.09 615.5 84.01 609.15 84.01C601.37 84.01 594.36 85.91 588.11 89.71C581.87 93.52 576.93 98.73 573.29 105.34C569.66 111.96 567.84 119.49 567.84 127.93C567.84 136.27 569.63 143.8 573.21 150.52C576.79 157.24 581.81 162.58 588.26 166.54C594.71 170.5 602.13 172.48 610.52 172.48C616.25 172.48 621.5 171.59 626.26 169.82C631.02 168.05 635.14 165.58 638.62 162.4C642.1 159.22 644.66 155.65 646.3 151.69L630.95 144.03C629 147.47 626.34 150.26 622.97 152.39C619.59 154.53 615.5 155.6 610.69 155.6C605.98 155.6 601.78 154.48 598.1 152.24C594.41 150 591.6 146.8 589.66 142.63C588.41 139.94 587.65 136.97 587.37 133.72H648.31C648.72 132.47 648.98 131.09 649.08 129.58C649.18 128.07 649.23 126.64 649.23 125.28C649.23 119.65 648.33 114.36 646.54 109.41C644.75 104.47 642.14 100.07 638.71 96.21ZM589.5 112.86C591.34 108.64 593.98 105.41 597.41 103.17C600.84 100.93 604.75 99.81 609.16 99.81C613.66 99.81 617.55 100.96 620.83 103.25C624.11 105.54 626.51 108.62 628.05 112.47C628.84 114.47 629.29 116.6 629.4 118.88H587.76C588.13 116.71 588.7 114.7 589.5 112.86Z" fill="white"/>
<path d="M721.31 88.08C716.55 85.37 711.1 84.02 704.96 84.02C699.02 84.02 693.83 85.38 689.38 88.08C686.04 90.11 683.4 92.85 681.47 96.3V85.89H663.66V170.61H682.39V120.74C682.39 116.78 683.13 113.37 684.62 110.5C686.1 107.63 688.2 105.42 690.92 103.86C693.63 102.3 696.73 101.51 700.21 101.51C703.59 101.51 706.61 102.29 709.27 103.86C711.93 105.42 714 107.64 715.49 110.5C716.97 113.37 717.72 116.78 717.72 120.74V170.61H736.45V115.9C736.45 109.65 735.12 104.13 732.46 99.33C729.78 94.55 726.08 90.79 721.31 88.08Z" fill="white"/>
<path d="M797.16 154.52C796.19 154.62 795.29 154.68 794.47 154.68C791.3 154.68 788.66 154.16 786.56 153.12C784.46 152.08 782.93 150.57 781.95 148.59C780.98 146.61 780.49 144.16 780.49 141.24V102.94H799.53V85.89H780.5V66.51H761.77V73.07C761.77 77.13 760.67 80.29 758.47 82.53C756.27 84.77 753.17 85.89 749.18 85.89H747.34V102.93H761.77V142.16C761.77 151.54 764.28 158.78 769.29 163.89C774.3 169 781.37 171.55 790.48 171.55C791.91 171.55 793.52 171.45 795.32 171.24C797.11 171.03 798.67 170.82 800 170.61V154.2C799.08 154.31 798.13 154.42 797.16 154.52Z" fill="white"/>
<path d="M318.14 61.51C309.29 56.61 298.87 54.17 286.9 54.17H244.96V170.63H286.9C298.88 170.63 309.29 168.15 318.14 163.2C326.99 158.25 333.85 151.4 338.71 142.64C343.57 133.89 346 123.78 346 112.31C346 100.85 343.57 90.74 338.71 81.98C333.85 73.23 327 66.41 318.14 61.51ZM321.52 133.81C318.3 139.91 313.77 144.62 307.93 147.96C302.1 151.3 295.19 152.96 287.2 152.96H264.45V71.83H287.2C295.18 71.83 302.09 73.47 307.93 76.75C313.76 80.03 318.29 84.7 321.52 90.74C324.74 96.79 326.36 103.92 326.36 112.16C326.36 120.49 324.75 127.71 321.52 133.81Z" fill="white"/>
<path d="M200.87 110.85C200.87 144.81 188.68 172.79 167.84 192.13C167.6 192.34 167.42 192.56 167.18 192.77C151.68 206.9 131.47 216.29 107.94 219.88L106.35 218.26L141.42 16.5099L142.74 12.8199C178.64 30.3599 200.87 65.3699 200.87 110.85Z" fill="#EE312E"/>
<path d="M142.75 12.83L141.76 14.3L0.74 119.34L0 118.65C0 118.65 0 118.62 0 118.59V0.449951H85.63C91.54 0.449951 97.27 0.789951 102.82 1.45995H103.03C117.05 3.11995 129.96 6.76995 141.51 12.24C141.97 12.46 142.75 12.83 142.75 12.83Z" fill="#AF292E"/>
<path d="M142.75 12.83L0 118.65V217.92V221.54H85.96C93.57 221.54 100.9 220.96 107.95 219.88C107.95 219.89 142.75 12.83 142.75 12.83Z" fill="#D3222A"/>
</g>
<defs>
<clipPath id="clip0_3_26">
<rect width="800" height="222" fill="white"/>
</clipPath>
</defs>
</svg>
