<?xml version="1.0" encoding="UTF-8"?>
<svg id="Layer_1" xmlns="http://www.w3.org/2000/svg" version="1.1" viewBox="0 0 204.1 225">
  <!-- Generator: Adobe Illustrator 29.1.0, SVG Export Plug-In . SVG Version: 2.1.0 Build 142)  -->
  <defs>
    <style>
      .st0 {
        fill: #d3222a;
      }

      .st1 {
        fill: #af292e;
      }

      .st2 {
        fill: #ee312e;
      }
    </style>
  </defs>
  <path class="st2" d="M202.5,112.3c0,34-12.2,61.9-33,81.3-.2.2-.4.4-.7.6-15.5,14.1-35.7,23.5-59.2,27.1l-14.4-14.6L139,25.3l5.4-11c35.9,17.5,58.1,52.5,58.1,98Z"/>
  <path class="st1" d="M144.4,14.3c-.7,1.2-6.4,10.4-6.4,10.4-.4.3-124.7,121.9-127.3,123.9-5.3-15.4-6.1-17.8-9-28.5h0V1.9h85.6c5.9,0,11.6.3,17.2,1h.2c14,1.7,26.9,5.3,38.5,10.8.5.2.8.4,1.2.6Z"/>
  <path class="st0" d="M144.4,14.3L1.6,120.1v102.9h86c7.6,0,14.9-.6,22-1.7,0,0,34.8-207.1,34.8-207.1Z"/>
</svg>