<svg width="44" height="44" viewBox="0 0 44 44" fill="none" xmlns="http://www.w3.org/2000/svg">
<path d="M17.875 11.6875C16.3625 11.6875 15.125 12.925 15.125 14.4375C15.125 15.95 16.3625 17.1875 17.875 17.1875C19.3875 17.1875 20.625 15.95 20.625 14.4375C20.625 12.925 19.3875 11.6875 17.875 11.6875ZM17.875 15.8125C17.05 15.8125 16.5 15.2625 16.5 14.4375C16.5 13.6125 17.05 13.0625 17.875 13.0625C18.7 13.0625 19.25 13.6125 19.25 14.4375C19.25 15.2625 18.7 15.8125 17.875 15.8125Z" fill="url(#paint0_linear_28_102)"/>
<path d="M26.125 17.1875C27.6375 17.1875 28.875 15.95 28.875 14.4375C28.875 12.925 27.6375 11.6875 26.125 11.6875C24.6125 11.6875 23.375 12.925 23.375 14.4375C23.375 15.95 24.6125 17.1875 26.125 17.1875ZM26.125 13.0625C26.95 13.0625 27.5 13.6125 27.5 14.4375C27.5 15.2625 26.95 15.8125 26.125 15.8125C25.3 15.8125 24.75 15.2625 24.75 14.4375C24.75 13.6125 25.3 13.0625 26.125 13.0625Z" fill="url(#paint1_linear_28_102)"/>
<path d="M38.5 38.5V31.2125C39.325 30.525 39.875 29.425 39.875 28.1875C39.875 25.85 38.0875 24.0625 35.75 24.0625H32.8625C32.5875 23.2375 31.7625 22.6875 30.9375 22.6875H24.75V19.9375H26.8125C29.425 19.9375 31.625 17.7375 31.625 15.125V13.75C31.625 11.1375 29.425 8.9375 26.8125 8.9375H22.6875V6.05C23.5125 5.775 24.0625 4.95 24.0625 4.125C24.0625 3.025 23.1 2.0625 22 2.0625C20.9 2.0625 19.9375 3.025 19.9375 4.125C19.9375 5.0875 20.4875 5.775 21.3125 6.05V8.9375H17.1875C14.575 8.9375 12.375 11.1375 12.375 13.75V15.125C12.375 17.7375 14.575 19.9375 17.1875 19.9375H19.25V22.6875H13.0625C12.1 22.6875 11.4125 23.2375 11.1375 24.0625H8.25C5.9125 24.0625 4.125 25.85 4.125 28.1875C4.125 29.425 4.675 30.525 5.5 31.2125V38.5C4.675 39.1875 4.125 40.15 4.125 41.25C4.125 41.6625 4.4 41.9375 4.8125 41.9375C5.225 41.9375 5.5 41.6625 5.5 41.25C5.5 40.15 6.4625 39.1875 7.5625 39.1875C8.6625 39.1875 9.625 40.15 9.625 41.25C9.625 41.6625 9.9 41.9375 10.3125 41.9375C10.725 41.9375 11 41.6625 11 41.25C11 40.15 10.45 39.1875 9.625 38.5V32.3125H11V37.125C11 38.225 11.9625 39.1875 13.0625 39.1875H30.9375C32.0375 39.1875 33 38.225 33 37.125V32.3125H34.375V38.5C33.55 39.1875 33 40.15 33 41.25C33 41.6625 33.275 41.9375 33.6875 41.9375C34.1 41.9375 34.375 41.6625 34.375 41.25C34.375 40.15 35.3375 39.1875 36.4375 39.1875C37.5375 39.1875 38.5 40.15 38.5 41.25C38.5 41.6625 38.775 41.9375 39.1875 41.9375C39.6 41.9375 39.875 41.6625 39.875 41.25C39.875 40.15 39.325 39.1875 38.5 38.5ZM22 3.4375C22.4125 3.4375 22.6875 3.7125 22.6875 4.125C22.6875 4.5375 22.4125 4.8125 22 4.8125C21.5875 4.8125 21.3125 4.5375 21.3125 4.125C21.3125 3.7125 21.5875 3.4375 22 3.4375ZM13.75 15.125V13.75C13.75 11.825 15.2625 10.3125 17.1875 10.3125H26.8125C28.7375 10.3125 30.25 11.825 30.25 13.75V15.125C30.25 17.05 28.7375 18.5625 26.8125 18.5625H17.1875C15.2625 18.5625 13.75 17.05 13.75 15.125ZM20.625 19.9375H23.375V22.6875H20.625V19.9375ZM8.25 37.95C7.975 37.95 7.8375 37.8125 7.5625 37.8125C7.2875 37.8125 7.15 37.8125 6.875 37.95V32.175C7.0125 32.175 7.0125 32.175 7.15 32.3125C7.2875 32.3125 7.425 32.3125 7.425 32.45C7.7 32.45 7.975 32.5875 8.25 32.5875V37.95ZM8.9375 30.9375H8.25C7.975 30.9375 7.7 30.9375 7.425 30.8H7.2875C7.0125 30.6625 6.7375 30.525 6.6 30.3875C5.9125 29.8375 5.5 29.15 5.5 28.1875C5.5 26.675 6.7375 25.4375 8.25 25.4375H11V30.9375H8.9375ZM31.625 37.125C31.625 37.5375 31.35 37.8125 30.9375 37.8125H13.0625C12.65 37.8125 12.375 37.5375 12.375 37.125V24.75C12.375 24.3375 12.65 24.0625 13.0625 24.0625H30.9375C31.35 24.0625 31.625 24.3375 31.625 24.75V37.125ZM33 25.4375H35.75C37.2625 25.4375 38.5 26.675 38.5 28.1875C38.5 29.15 38.0875 29.8375 37.4 30.3875C37.125 30.525 36.85 30.6625 36.7125 30.8H36.575C36.3 30.9375 36.025 30.9375 35.75 30.9375H33V25.4375ZM35.75 37.95V32.3125C36.025 32.3125 36.3 32.3125 36.575 32.175C36.7125 32.175 36.85 32.175 36.85 32.0375C36.9875 32.0375 36.9875 32.0375 37.125 31.9V37.675C36.85 37.675 36.7125 37.5375 36.4375 37.5375C36.1625 37.5375 36.025 37.8125 35.75 37.95Z" fill="url(#paint2_linear_28_102)"/>
<defs>
<linearGradient id="paint0_linear_28_102" x1="11.1719" y1="14.4375" x2="35.4805" y2="14.4375" gradientUnits="userSpaceOnUse">
<stop stop-color="#2B2E81"/>
<stop offset="1" stop-color="#BE4F9C"/>
</linearGradient>
<linearGradient id="paint1_linear_28_102" x1="11.1719" y1="14.4375" x2="35.4805" y2="14.4375" gradientUnits="userSpaceOnUse">
<stop stop-color="#2B2E81"/>
<stop offset="1" stop-color="#BE4F9C"/>
</linearGradient>
<linearGradient id="paint2_linear_28_102" x1="11.1719" y1="22" x2="35.4805" y2="22" gradientUnits="userSpaceOnUse">
<stop stop-color="#2B2E81"/>
<stop offset="1" stop-color="#BE4F9C"/>
</linearGradient>
</defs>
</svg>
