<svg width="24" height="24" viewBox="0 0 24 24" fill="none" xmlns="http://www.w3.org/2000/svg">
<path fill-rule="evenodd" clip-rule="evenodd" d="M15.4305 11.365C15.8605 11.365 16.2755 11.3 16.6705 11.17C17.0705 11.04 17.4305 10.86 17.7555 10.625L19.8755 12.75L21.0105 13.885L21.1805 13.715L22.0655 12.83L18.8055 9.57501C19.0255 9.25001 19.2055 8.89501 19.3405 8.50501C19.4755 8.12001 19.5455 7.70001 19.5455 7.25001C19.5455 6.10001 19.1455 5.13001 18.3505 4.33001C17.5505 3.53501 16.5755 3.13501 15.4305 3.13501C14.2855 3.13501 13.3105 3.53501 12.5105 4.33001C11.7155 5.13001 11.3155 6.10001 11.3155 7.25001C11.3155 8.40001 11.7155 9.37001 12.5105 10.17C13.3105 10.965 14.2805 11.365 15.4305 11.365ZM13.5755 5.39501C14.0805 4.88501 14.7005 4.63501 15.4305 4.63501C16.1605 4.63501 16.7805 4.88501 17.2855 5.39501C17.7955 5.90001 18.0455 6.52001 18.0455 7.25001C18.0455 7.98001 17.7955 8.60001 17.2855 9.10501C16.7805 9.61501 16.1605 9.86501 15.4305 9.86501C14.7005 9.86501 14.0805 9.61501 13.5755 9.10501C13.0655 8.60001 12.8155 7.98001 12.8155 7.25001C12.8155 6.52001 13.0655 5.90001 13.5755 5.39501ZM3.25 4.99999H9.43V6.74999H3.25V4.99999ZM3.25 8.99999H9.43V10.75H3.25V8.99999ZM14.43 13H3.25V14.75H12.93L14.43 13ZM3.25 17H10.93V18.75H3.25V17ZM17.1799 21.5L15.6799 18.5L12.6799 17L15.6799 15.5L17.1799 12.5L18.6799 15.5L21.6799 17L18.6799 18.5L17.1799 21.5Z" fill="url(#paint0_linear_34_335)"/>
<defs>
<linearGradient id="paint0_linear_34_335" x1="4.11508" y1="9.33319" x2="20.887" y2="22.9514" gradientUnits="userSpaceOnUse">
<stop stop-color="#D3222A"/>
<stop offset="0.64" stop-color="#C247FA"/>
<stop offset="1" stop-color="#4D1DD5"/>
</linearGradient>
</defs>
</svg>
