<svg width="29" height="26" viewBox="0 0 29 26" fill="none" xmlns="http://www.w3.org/2000/svg">
<path d="M15.7697 12.0411C15.5082 11.7933 15.1567 11.6545 14.7906 11.6545C14.4246 11.6545 14.0731 11.7933 13.8116 12.0411L9.61587 15.9635C9.46747 16.0819 9.34592 16.2287 9.25885 16.3946C9.17177 16.5605 9.12103 16.742 9.10981 16.9278C9.09858 17.1135 9.1271 17.2995 9.1936 17.4741C9.26009 17.6487 9.36312 17.8082 9.49624 17.9425C9.62937 18.0769 9.78973 18.1832 9.96729 18.2549C10.1448 18.3265 10.3358 18.362 10.5282 18.3591C10.7205 18.3561 10.9102 18.3148 11.0853 18.2377C11.2605 18.1607 11.4173 18.0495 11.5459 17.9111L13.3781 16.1934V23.8217C13.3781 24.1804 13.5254 24.5244 13.7877 24.7781C14.05 25.0317 14.4057 25.1742 14.7767 25.1742C15.1476 25.1742 15.5033 25.0317 15.7656 24.7781C16.0279 24.5244 16.1752 24.1804 16.1752 23.8217V16.261L17.9794 18.0193C18.1094 18.1461 18.2641 18.2467 18.4346 18.3154C18.605 18.384 18.7878 18.4194 18.9724 18.4194C19.157 18.4194 19.3398 18.384 19.5103 18.3154C19.6807 18.2467 19.8354 18.1461 19.9654 18.0193C20.0965 17.8936 20.2005 17.744 20.2716 17.5792C20.3426 17.4144 20.3791 17.2376 20.3791 17.059C20.3791 16.8805 20.3426 16.7037 20.2716 16.5389C20.2005 16.374 20.0965 16.2245 19.9654 16.0987L15.7697 12.0411Z" fill="#282E37"/>
<path d="M22.7068 6.23873C22.1361 4.64417 21.0657 3.26129 19.6444 2.28252C18.2231 1.30375 16.5216 0.777771 14.7768 0.777771C13.032 0.777771 11.3306 1.30375 9.90928 2.28252C8.48798 3.26129 7.41752 4.64417 6.84684 6.23873C5.59028 6.40149 4.40311 6.89154 3.41233 7.65645C2.42155 8.42136 1.66442 9.43236 1.22195 10.5813C0.779485 11.7302 0.668316 12.9739 0.900337 14.1792C1.13236 15.3845 1.69884 16.5062 2.53919 17.4242C2.6407 17.5971 2.78038 17.7463 2.94829 17.861C3.1162 17.9758 3.3082 18.0533 3.51063 18.0881C3.71306 18.1229 3.92094 18.1141 4.11946 18.0624C4.31798 18.0106 4.50225 17.9172 4.65917 17.7887C4.81608 17.6602 4.94178 17.4998 5.0273 17.319C5.11282 17.1382 5.15607 16.9414 5.15396 16.7426C5.15185 16.5437 5.10443 16.3478 5.01509 16.1687C4.92575 15.9896 4.79668 15.8318 4.63707 15.7065C4.09598 15.1215 3.74196 14.3972 3.6179 13.6215C3.49385 12.8459 3.6051 12.052 3.93816 11.3363C4.27122 10.6205 4.81181 10.0135 5.49439 9.58887C6.17698 9.16422 6.97227 8.94015 7.78389 8.9438H7.92375C8.25094 8.95018 8.57009 8.8454 8.82564 8.6477C9.08119 8.44999 9.25695 8.17188 9.32234 7.86178C9.57913 6.63877 10.2652 5.53923 11.2644 4.74946C12.2636 3.95968 13.5143 3.52824 14.8048 3.52824C16.0953 3.52824 17.346 3.95968 18.3452 4.74946C19.3444 5.53923 20.0305 6.63877 20.2873 7.86178C20.3526 8.17188 20.5284 8.44999 20.784 8.6477C21.0395 8.8454 21.3587 8.95018 21.6858 8.9438H21.7698C22.5814 8.94015 23.3767 9.16422 24.0593 9.58887C24.7418 10.0135 25.2824 10.6205 25.6155 11.3363C25.9486 12.052 26.0598 12.8459 25.9357 13.6215C25.8117 14.3972 25.4577 15.1215 24.9166 15.7065C24.7934 15.8401 24.6988 15.996 24.6384 16.1652C24.578 16.3344 24.5529 16.5136 24.5646 16.6922C24.5763 16.8709 24.6246 17.0455 24.7066 17.206C24.7887 17.3664 24.9028 17.5096 25.0425 17.6271C25.2974 17.8445 25.6256 17.9647 25.9655 17.9652C26.1641 17.965 26.3603 17.9238 26.5412 17.8445C26.7221 17.7652 26.8834 17.6496 27.0145 17.5053C27.8781 16.5889 28.4646 15.4605 28.7099 14.2435C28.9551 13.0265 28.8496 11.7677 28.405 10.6047C27.9603 9.4417 27.1936 8.41934 26.1887 7.64934C25.1837 6.87934 23.9792 6.39136 22.7068 6.23873Z" fill="#282E37"/>
</svg>
