<svg width="32" height="32" viewBox="0 0 32 32" fill="none" xmlns="http://www.w3.org/2000/svg">
<path d="M8.75126 27.5938C7.89226 27.5938 7.16167 27.293 6.55951 26.6917C5.95736 26.0904 5.65628 25.3603 5.65628 24.5012C5.65628 23.6422 5.95709 22.9116 6.5587 22.3095C7.16033 21.7073 7.89087 21.4062 8.75031 21.4062C8.99096 21.4062 9.22741 21.4362 9.45962 21.496C9.69182 21.5559 9.91105 21.6363 10.1173 21.7372L12.3479 18.9615C11.8806 18.4523 11.5582 17.8826 11.3808 17.2524C11.2034 16.6221 11.1674 15.9882 11.2726 15.3507L8.03172 14.2776C7.74902 14.732 7.37732 15.0961 6.91662 15.3702C6.45591 15.6442 5.94203 15.7812 5.375 15.7812C4.51564 15.7812 3.78517 15.4805 3.18361 14.8792C2.58206 14.2779 2.28127 13.5478 2.28125 12.6887C2.28125 11.8297 2.58191 11.0991 3.18322 10.497C3.78453 9.89483 4.51469 9.59375 5.37371 9.59375C6.23272 9.59375 6.9633 9.89453 7.56545 10.4961C8.16762 11.0976 8.46871 11.8281 8.46872 12.6875C8.46872 12.7538 8.46693 12.8094 8.46333 12.8541C8.45973 12.8988 8.45793 12.9435 8.45793 12.9882L11.688 14.1111C11.9981 13.537 12.4239 13.0445 12.9655 12.6334C13.5071 12.2224 14.1284 11.9584 14.8293 11.8416V8.38865C14.1053 8.21846 13.5204 7.85247 13.0748 7.29071C12.6291 6.72894 12.4063 6.08887 12.4063 5.3705C12.4063 4.51531 12.7069 3.78665 13.3083 3.18449C13.9096 2.58233 14.6397 2.28125 15.4988 2.28125C16.3577 2.28125 17.0883 2.58203 17.6905 3.18359C18.2926 3.78514 18.5938 4.5156 18.5938 5.37498C18.5938 6.09036 18.368 6.72894 17.9166 7.29071C17.4651 7.85247 16.8832 8.21846 16.1707 8.38865V11.8416C16.8716 11.9584 17.491 12.2224 18.029 12.6334C18.567 13.0445 18.9947 13.537 19.312 14.1111L22.542 12.9882C22.5348 12.9363 22.5312 12.8898 22.5312 12.8487V12.6875C22.5312 11.8281 22.832 11.0976 23.4333 10.4961C24.0346 9.89453 24.7647 9.59375 25.6238 9.59375C26.4827 9.59375 27.2133 9.89441 27.8155 10.4957C28.4176 11.097 28.7188 11.8272 28.7188 12.6862C28.7188 13.5452 28.4179 14.2758 27.8164 14.878C27.2149 15.4801 26.4844 15.7812 25.625 15.7812C25.0604 15.7812 24.5441 15.6442 24.0764 15.3702C23.6088 15.0961 23.2394 14.732 22.9683 14.2776L19.7274 15.3507C19.8326 15.9882 19.7966 16.6192 19.6192 17.2438C19.4418 17.8682 19.1195 18.4373 18.6521 18.9507L20.8827 21.7091C21.089 21.6154 21.3081 21.5415 21.5403 21.4874C21.7726 21.4333 22.009 21.4062 22.2497 21.4062C23.1092 21.4062 23.8396 21.707 24.4413 22.3083C25.0429 22.9096 25.3438 23.6397 25.3438 24.4988C25.3438 25.3577 25.043 26.0883 24.4417 26.6905C23.8404 27.2926 23.1103 27.5938 22.2512 27.5938C21.3923 27.5938 20.6617 27.2929 20.0595 26.6914C19.4574 26.0899 19.1562 25.3594 19.1562 24.5C19.1562 24.1452 19.2136 23.8037 19.3283 23.4756C19.4429 23.1474 19.6142 22.8464 19.8421 22.5723L17.6115 19.7749C16.9726 20.1557 16.2677 20.3461 15.4967 20.3461C14.7259 20.3461 14.0174 20.1557 13.3712 19.7749L11.1579 22.5723C11.3786 22.8464 11.5481 23.1474 11.6663 23.4756C11.7846 23.8037 11.8437 24.1452 11.8437 24.5C11.8437 25.3594 11.5431 26.0899 10.9417 26.6914C10.3404 27.2929 9.61028 27.5938 8.75126 27.5938ZM5.375 14.0938C5.76586 14.0938 6.09796 13.9571 6.3713 13.6838C6.64462 13.4104 6.78128 13.0783 6.78128 12.6874C6.78128 12.2966 6.64462 11.9645 6.3713 11.6911C6.09796 11.4178 5.76586 11.2812 5.375 11.2812C4.98414 11.2812 4.65204 11.4178 4.3787 11.6912C4.1054 11.9645 3.96875 12.2966 3.96875 12.6875C3.96875 13.0783 4.10541 13.4104 4.37873 13.6838C4.65205 13.9571 4.98414 14.0938 5.375 14.0938ZM8.75 25.9062C9.14086 25.9062 9.47296 25.7696 9.7463 25.4962C10.0196 25.2229 10.1563 24.8908 10.1563 24.5C10.1563 24.1091 10.0196 23.777 9.7463 23.5037C9.47296 23.2303 9.14086 23.0938 8.75 23.0938C8.35914 23.0938 8.02704 23.2303 7.7537 23.5037C7.48038 23.777 7.34372 24.1091 7.34372 24.5C7.34372 24.8908 7.48038 25.2229 7.7537 25.4963C8.02704 25.7696 8.35914 25.9062 8.75 25.9062ZM15.5 6.78123C15.8908 6.78123 16.2229 6.64456 16.4963 6.37124C16.7697 6.0979 16.9062 5.7658 16.9062 5.37494C16.9062 4.98408 16.7697 4.65199 16.4963 4.37864C16.2229 4.10535 15.8908 3.96869 15.5 3.96869C15.1092 3.96869 14.7771 4.10536 14.5037 4.37868C14.2303 4.65201 14.0938 4.98411 14.0938 5.37498C14.0938 5.76584 14.2303 6.09794 14.5037 6.37128C14.7771 6.6446 15.1092 6.78123 15.5 6.78123ZM15.5 18.6586C16.2226 18.6586 16.8359 18.4065 17.34 17.9024C17.8441 17.3983 18.0962 16.7851 18.0962 16.0625C18.0962 15.3399 17.8441 14.7266 17.34 14.2225C16.8359 13.7183 16.2226 13.4663 15.5 13.4663C14.7774 13.4663 14.1641 13.7183 13.66 14.2225C13.1559 14.7266 12.9039 15.3399 12.9039 16.0625C12.9039 16.7851 13.1559 17.3984 13.66 17.9025C14.1641 18.4065 14.7774 18.6586 15.5 18.6586ZM22.25 25.9062C22.6408 25.9062 22.9729 25.7696 23.2463 25.4962C23.5197 25.2229 23.6562 24.8908 23.6562 24.5C23.6562 24.1091 23.5197 23.777 23.2463 23.5037C22.9729 23.2303 22.6408 23.0938 22.25 23.0938C21.8592 23.0938 21.5271 23.2303 21.2537 23.5037C20.9804 23.777 20.8438 24.1091 20.8438 24.5C20.8438 24.8908 20.9804 25.2229 21.2537 25.4963C21.5271 25.7696 21.8592 25.9062 22.25 25.9062ZM25.625 14.0938C26.0158 14.0938 26.3479 13.9571 26.6213 13.6838C26.8947 13.4104 27.0312 13.0783 27.0312 12.6874C27.0312 12.2966 26.8947 11.9645 26.6213 11.6911C26.3479 11.4178 26.0158 11.2812 25.625 11.2812C25.2342 11.2812 24.9021 11.4178 24.6287 11.6912C24.3554 11.9645 24.2188 12.2966 24.2188 12.6875C24.2188 13.0783 24.3554 13.4104 24.6287 13.6838C24.9021 13.9571 25.2342 14.0938 25.625 14.0938Z" fill="white"/>
</svg>
